<svg id="Layer_1" data-name="Layer 1" xmlns="http://www.w3.org/2000/svg" viewBox="0 0 305.46 70.17"><defs><style>.cls-1{fill:#0a2240;}.cls-2{fill:#eef2f6;}</style></defs><ellipse class="cls-1" cx="46.12" cy="35.1" rx="32.29" ry="21.06"/><path class="cls-2" d="M57.11,15.19c-13.24,3-22.68,10.78-22.68,19.9S43.87,52,57.11,55c12.55-3,21.5-10.78,21.5-19.91S69.66,18.19,57.11,15.19Z"/><path class="cls-1" d="M97.86,46.39a29,29,0,0,1-3.76,3C87.35,53.79,79,55.61,71,55.93a49.11,49.11,0,0,1-24.65-5.15C41,48,35.85,43.29,34.84,37c-1-6,2.72-11.29,7.23-14.81,6.17-4.82,14.22-7,21.9-7.74a51.44,51.44,0,0,1,25.45,3.83,29.56,29.56,0,0,1,8.86,5.85h.94a24.86,24.86,0,0,0-3-2.59c-5.71-4.22-12.87-6.33-19.83-7.24A56.14,56.14,0,0,0,53,16.14C46.92,18,40.8,21.2,36.87,26.35A14.09,14.09,0,0,0,35.14,41c2.57,5.54,8.23,9.19,13.65,11.52a52.91,52.91,0,0,0,22.47,3.81,48.71,48.71,0,0,0,21.55-5.49,28.31,28.31,0,0,0,6.12-4.43Z"/><path class="cls-1" d="M61.12,28H66.4a5,5,0,0,1,3.23,1,3.23,3.23,0,0,1,1.22,2.67,3.64,3.64,0,0,1-.14,1,3.53,3.53,0,0,1-1.85,2,3.64,3.64,0,0,1,2,1.4,3.54,3.54,0,0,1,.6,1.94c0,2.33-1.72,3.87-4.91,3.87H61.12Zm2.16,5.85H66c1.78,0,2.68-.83,2.68-2S67.89,30,66.12,30H63.28Zm0,6h3.33c1.75,0,2.71-.83,2.71-2.09s-.94-2-2.85-2H63.28Z"/><path class="cls-1" d="M76.26,30v3.85h6.07v2H76.26v4.08H83v2H74.08V28h8.85v2Z"/><path class="cls-1" d="M84.71,38.71l1.84-1a3.39,3.39,0,0,0,3.28,2.3c1.42,0,2.42-.74,2.42-1.89s-.79-1.59-2.77-2.21a9,9,0,0,1-3.25-1.6,3.19,3.19,0,0,1-1.06-2.53A3.55,3.55,0,0,1,86.5,29a4.82,4.82,0,0,1,3.26-1.16,4.57,4.57,0,0,1,4.54,2.93l-1.8,1a2.83,2.83,0,0,0-2.79-1.94A2.05,2.05,0,0,0,87.4,31.7c0,1,.86,1.6,2.56,2.12a8.61,8.61,0,0,1,3.54,1.74,3.31,3.31,0,0,1,1,2.48,3.71,3.71,0,0,1-1.27,2.8A4.78,4.78,0,0,1,89.8,42,5.12,5.12,0,0,1,84.71,38.71Z"/><path class="cls-1" d="M95.41,28h11v2H102V41.87H99.79V30.06H95.41Z"/><path class="cls-1" d="M122.94,32.83a4.45,4.45,0,0,0-4.33-3,4.5,4.5,0,0,0-3.41,1.45,5.11,5.11,0,0,0-1.35,3.62,5.17,5.17,0,0,0,1.34,3.64,4.44,4.44,0,0,0,3.4,1.46,3.83,3.83,0,0,0,4.12-3.11h-5V35h7.31v.76A6.12,6.12,0,0,1,118.61,42a6.83,6.83,0,0,1-5.07-2,6.92,6.92,0,0,1-2-5.05,6.77,6.77,0,0,1,2.08-5.08,6.85,6.85,0,0,1,5-2,6.71,6.71,0,0,1,4,1.2,5.9,5.9,0,0,1,2.22,2.89Z"/><path class="cls-1" d="M136,39.85v2h-8.41V28h2.18V39.85Z"/><path class="cls-1" d="M138.49,29.91a6.93,6.93,0,0,1,5-2.06,7,7,0,0,1,7.08,7.08A6.78,6.78,0,0,1,148.52,40a7.29,7.29,0,0,1-10.06,0A6.8,6.8,0,0,1,136.41,35,6.88,6.88,0,0,1,138.49,29.91Zm8.42,8.62a5.26,5.26,0,0,0,0-7.19,4.51,4.51,0,0,0-3.4-1.48,4.56,4.56,0,0,0-3.43,1.48,5.34,5.34,0,0,0,0,7.19A4.53,4.53,0,0,0,143.51,40,4.48,4.48,0,0,0,146.91,38.53Z"/><path class="cls-1" d="M153.22,28h5.28a5,5,0,0,1,3.23,1A3.26,3.26,0,0,1,163,31.68a3.67,3.67,0,0,1-.15,1,3.5,3.5,0,0,1-1.85,2,3.61,3.61,0,0,1,2,1.4,3.46,3.46,0,0,1,.6,1.94c0,2.33-1.71,3.87-4.91,3.87h-5.45Zm2.15,5.85h2.72c1.78,0,2.68-.83,2.68-2S160,30,158.21,30h-2.84Zm0,6h3.34c1.75,0,2.7-.83,2.7-2.09s-.94-2-2.84-2h-3.2Z"/><path class="cls-1" d="M169.87,28h2.56L178,41.87h-2.26l-1.25-3.25h-6.78l-1.27,3.25h-2.22Zm-1.36,8.65h5.24l-2.63-6.56Z"/><path class="cls-1" d="M188.23,39.85v2h-8.4V28H182V39.85Z"/><path class="cls-1" d="M202.71,39.85v2H194.3V28h2.18V39.85Z"/><path class="cls-1" d="M205.23,29.91a6.93,6.93,0,0,1,5-2.06,7,7,0,0,1,7.08,7.08A6.78,6.78,0,0,1,215.26,40a7.29,7.29,0,0,1-10.06,0,6.8,6.8,0,0,1-2-5.05A6.88,6.88,0,0,1,205.23,29.91Zm8.42,8.62a5.26,5.26,0,0,0,0-7.19,4.51,4.51,0,0,0-3.4-1.48,4.56,4.56,0,0,0-3.43,1.48,5.34,5.34,0,0,0,0,7.19A4.53,4.53,0,0,0,210.25,40,4.48,4.48,0,0,0,213.65,38.53Z"/><path class="cls-1" d="M230.39,32.83a4.42,4.42,0,0,0-4.32-3,4.5,4.5,0,0,0-3.41,1.45,5.56,5.56,0,0,0,0,7.26A4.45,4.45,0,0,0,226.05,40a3.82,3.82,0,0,0,4.11-3.11h-5V35h7.31v.76A6.1,6.1,0,0,1,226.07,42,6.81,6.81,0,0,1,221,40,6.89,6.89,0,0,1,219,35a7.05,7.05,0,0,1,7-7.13,6.66,6.66,0,0,1,4,1.2,5.86,5.86,0,0,1,2.23,2.89Z"/><path class="cls-1" d="M235,28h2.17V41.87H235Z"/><path class="cls-1" d="M239.63,38.71l1.83-1a3.41,3.41,0,0,0,3.29,2.3c1.41,0,2.42-.74,2.42-1.89s-.8-1.59-2.78-2.21a8.9,8.9,0,0,1-3.24-1.6,3.19,3.19,0,0,1-1.06-2.53A3.58,3.58,0,0,1,241.41,29a4.85,4.85,0,0,1,3.27-1.16,4.56,4.56,0,0,1,4.53,2.93l-1.8,1a2.82,2.82,0,0,0-2.79-1.94,2.05,2.05,0,0,0-2.31,1.89c0,1,.87,1.6,2.56,2.12a8.66,8.66,0,0,1,3.55,1.74,3.34,3.34,0,0,1,1,2.48,3.74,3.74,0,0,1-1.27,2.8A4.81,4.81,0,0,1,244.71,42,5.1,5.1,0,0,1,239.63,38.71Z"/><path class="cls-1" d="M250.33,28h10.94v2h-4.39V41.87h-2.17V30.06h-4.38Z"/><path class="cls-1" d="M263.39,28h2.17V41.87h-2.17Z"/><path class="cls-1" d="M270.33,40.21A6.94,6.94,0,0,1,268.16,35a7.05,7.05,0,0,1,7-7.15,6.69,6.69,0,0,1,4.28,1.39,6.08,6.08,0,0,1,2,2.76l-2,.9a4.42,4.42,0,0,0-4.31-3,4.54,4.54,0,0,0-3.3,1.41,4.91,4.91,0,0,0-1.42,3.64,5,5,0,0,0,1.4,3.65A4.54,4.54,0,0,0,275.17,40a4.63,4.63,0,0,0,2.63-.83A4.69,4.69,0,0,0,279.53,37l2,.9a6.23,6.23,0,0,1-2.05,2.75A6.94,6.94,0,0,1,275.12,42,7.32,7.32,0,0,1,270.33,40.21Z"/><path class="cls-1" d="M282.73,38.71l1.83-1a3.39,3.39,0,0,0,3.28,2.3c1.42,0,2.42-.74,2.42-1.89s-.79-1.59-2.77-2.21a9,9,0,0,1-3.25-1.6,3.22,3.22,0,0,1-1.06-2.53A3.59,3.59,0,0,1,284.51,29a4.84,4.84,0,0,1,3.26-1.16,4.57,4.57,0,0,1,4.54,2.93l-1.8,1a2.82,2.82,0,0,0-2.79-1.94,2.05,2.05,0,0,0-2.31,1.89c0,1,.86,1.6,2.56,2.12a8.73,8.73,0,0,1,3.55,1.74,3.34,3.34,0,0,1,1,2.48,3.72,3.72,0,0,1-1.28,2.8A4.77,4.77,0,0,1,287.81,42,5.1,5.1,0,0,1,282.73,38.71Z"/><path class="cls-1" d="M164.28,49.08H162v2.13h-.5V46.44h3v.47H162v1.71h2.25Z"/><path class="cls-1" d="M166.48,49.28v1.93H166V46.44h1.65a1.79,1.79,0,0,1,1.25.4,1.31,1.31,0,0,1,.42,1,1.24,1.24,0,0,1-.37.94,1.54,1.54,0,0,1-.94.42l1.48,2h-.61l-1.41-1.93Zm0-.46h1.11a1.26,1.26,0,0,0,.9-.28.93.93,0,0,0,.31-.69c0-.54-.37-.94-1.2-.94h-1.12Z"/><path class="cls-1" d="M173.92,46.9h-2.48v1.66h2.27V49h-2.27v1.73H174v.46h-3V46.44h3Z"/><path class="cls-1" d="M176.06,51.21h-.5V46.44h.5Z"/><path class="cls-1" d="M181.71,48a1.89,1.89,0,0,0-.6-.83,1.64,1.64,0,0,0-1.09-.34,1.8,1.8,0,0,0-1.33.55,1.88,1.88,0,0,0-.54,1.39,2,2,0,0,0,.51,1.41,1.76,1.76,0,0,0,1.36.57,1.81,1.81,0,0,0,1.15-.38,1.4,1.4,0,0,0,.54-1h-2V48.9h2.53v.18a2.13,2.13,0,0,1-.61,1.56,2.16,2.16,0,0,1-1.62.62,2.27,2.27,0,0,1-1.72-.69,2.57,2.57,0,0,1,0-3.47,2.3,2.3,0,0,1,1.71-.71,2.12,2.12,0,0,1,1.37.43,2.15,2.15,0,0,1,.76,1Z"/><path class="cls-1" d="M184.26,51.21h-.5V46.44h.5v2.11H187V46.44h.5v4.77H187V49h-2.72Z"/><path class="cls-1" d="M190.44,46.91h-1.59v-.47h3.69v.47H191v4.3h-.51Z"/><path class="cls-1" d="M198.71,49.08h-2.25v2.13H196V46.44h3v.47h-2.46v1.71h2.25Z"/><path class="cls-1" d="M204.07,50.55a2.31,2.31,0,0,1-1.72.71,2.26,2.26,0,0,1-1.7-.7,2.34,2.34,0,0,1-.69-1.72,2.43,2.43,0,0,1,.69-1.74,2.43,2.43,0,0,1,3.42,0,2.39,2.39,0,0,1,.68,1.72A2.42,2.42,0,0,1,204.07,50.55Zm-.37-3.11a1.79,1.79,0,0,0-1.35-.58,1.72,1.72,0,0,0-1.34.58,1.93,1.93,0,0,0-.53,1.37,2,2,0,0,0,.54,1.4,1.79,1.79,0,0,0,1.35.58,1.76,1.76,0,0,0,1.34-.57,2.07,2.07,0,0,0,0-2.78Z"/><path class="cls-1" d="M206.83,49.28v1.93h-.5V46.44H208a1.76,1.76,0,0,1,1.24.4,1.28,1.28,0,0,1,.43,1,1.24,1.24,0,0,1-.37.94,1.54,1.54,0,0,1-.94.42l1.47,2h-.6l-1.41-1.93Zm0-.46h1.1a1.29,1.29,0,0,0,.91-.28.92.92,0,0,0,.3-.69c0-.54-.36-.94-1.19-.94h-1.12Z"/><path class="cls-1" d="M211.23,46.44l1.25,4h0l1.26-4h.57l1.27,4.07h0l1.25-4.07h.51l-1.5,4.77h-.56L214,47.12l-1.28,4.09h-.55l-1.49-4.77Z"/><path class="cls-1" d="M218.44,51.21h-.52L220,46.44h.57l2.06,4.77h-.53L221.56,50H219Zm2.92-1.67L220.26,47l-1.11,2.58Z"/><path class="cls-1" d="M224.37,49.28v1.93h-.5V46.44h1.65a1.76,1.76,0,0,1,1.24.4,1.28,1.28,0,0,1,.43,1,1.24,1.24,0,0,1-.37.94,1.54,1.54,0,0,1-.94.42l1.47,2h-.6l-1.41-1.93Zm0-.46h1.1a1.29,1.29,0,0,0,.91-.28.92.92,0,0,0,.3-.69c0-.54-.36-.94-1.19-.94h-1.12Z"/><path class="cls-1" d="M228.83,46.44h1.42a2.48,2.48,0,0,1,1.8.68,2.4,2.4,0,0,1,0,3.42,2.56,2.56,0,0,1-1.79.67h-1.42Zm.5,4.3h.9a2,2,0,0,0,1.45-.54,1.81,1.81,0,0,0,.56-1.37,1.84,1.84,0,0,0-.55-1.38,2,2,0,0,0-1.47-.54h-.89Z"/><path class="cls-1" d="M234.83,51.21h-.5V46.44h.5Z"/><path class="cls-1" d="M240.62,51.21h-.54l-2.85-4.06v4.06h-.49V46.44h.58l2.81,4v-4h.49Z"/><path class="cls-1" d="M246.26,48a1.8,1.8,0,0,0-.59-.83,1.62,1.62,0,0,0-1.09-.34,1.8,1.8,0,0,0-1.33.55,1.88,1.88,0,0,0-.54,1.39,2,2,0,0,0,.51,1.41,1.76,1.76,0,0,0,1.36.57,1.86,1.86,0,0,0,1.16-.38,1.38,1.38,0,0,0,.52-1h-2V48.9h2.53v.18a2.13,2.13,0,0,1-.61,1.56,2.16,2.16,0,0,1-1.62.62,2.27,2.27,0,0,1-1.72-.69,2.57,2.57,0,0,1,0-3.47,2.3,2.3,0,0,1,1.71-.71,2.2,2.2,0,0,1,2.13,1.45Z"/><path class="cls-1" d="M250.23,50.1l.44-.23a1.24,1.24,0,0,0,1.21.92,1.18,1.18,0,0,0,.73-.23.73.73,0,0,0,.3-.6c0-.49-.38-.77-1.11-1-1-.24-1.43-.66-1.43-1.32a1.14,1.14,0,0,1,.44-.94,1.62,1.62,0,0,1,1.06-.36,1.52,1.52,0,0,1,1.51,1l-.43.24a1.09,1.09,0,0,0-1.09-.76,1.08,1.08,0,0,0-.69.22.71.71,0,0,0-.3.59c0,.43.3.66,1,.85a2.4,2.4,0,0,1,1.2.6,1.17,1.17,0,0,1,.33.81,1.25,1.25,0,0,1-.42.94,1.57,1.57,0,0,1-1.12.39A1.64,1.64,0,0,1,250.23,50.1Z"/><path class="cls-1" d="M258.77,50.55a2.31,2.31,0,0,1-1.72.71,2.27,2.27,0,0,1-1.7-.7,2.34,2.34,0,0,1-.68-1.72,2.42,2.42,0,0,1,.68-1.74,2.43,2.43,0,0,1,3.42,0,2.36,2.36,0,0,1,.69,1.72A2.39,2.39,0,0,1,258.77,50.55Zm-.37-3.11a1.79,1.79,0,0,0-1.35-.58,1.74,1.74,0,0,0-1.34.58,1.93,1.93,0,0,0-.53,1.37,2,2,0,0,0,.54,1.4,1.79,1.79,0,0,0,1.35.58,1.75,1.75,0,0,0,1.34-.57,2.07,2.07,0,0,0,0-2.78Z"/><path class="cls-1" d="M261.53,50.74h2.26v.47H261V46.44h.5Z"/><path class="cls-1" d="M268.46,46.44v2.91a1.7,1.7,0,0,1-1.79,1.91,1.73,1.73,0,0,1-1.33-.51,2,2,0,0,1-.46-1.37V46.44h.5v2.91c0,1,.51,1.44,1.3,1.44s1.28-.51,1.28-1.41V46.44Z"/><path class="cls-1" d="M271.36,46.91h-1.59v-.47h3.69v.47h-1.59v4.3h-.51Z"/><path class="cls-1" d="M275.32,51.21h-.49V46.44h.49Z"/><path class="cls-1" d="M281,50.55a2.31,2.31,0,0,1-1.72.71,2.27,2.27,0,0,1-1.7-.7,2.34,2.34,0,0,1-.69-1.72,2.43,2.43,0,0,1,.69-1.74,2.43,2.43,0,0,1,3.42,0,2.36,2.36,0,0,1,.69,1.72A2.39,2.39,0,0,1,281,50.55Zm-.37-3.11a1.79,1.79,0,0,0-1.35-.58,1.72,1.72,0,0,0-1.34.58,1.93,1.93,0,0,0-.53,1.37,2,2,0,0,0,.54,1.4,1.79,1.79,0,0,0,1.35.58,1.75,1.75,0,0,0,1.34-.57,2.07,2.07,0,0,0,0-2.78Z"/><path class="cls-1" d="M287.14,51.21h-.53l-2.86-4.06v4.06h-.49V46.44h.58l2.81,4v-4h.49Z"/><path class="cls-1" d="M288.68,50.1l.43-.23a1.26,1.26,0,0,0,1.22.92,1.18,1.18,0,0,0,.73-.23.72.72,0,0,0,.29-.6c0-.49-.37-.77-1.1-1-1-.24-1.43-.66-1.43-1.32a1.14,1.14,0,0,1,.44-.94,1.62,1.62,0,0,1,1.06-.36,1.5,1.5,0,0,1,1.5,1l-.42.24a1.09,1.09,0,0,0-1.09-.76,1.12,1.12,0,0,0-.7.22.72.72,0,0,0-.29.59c0,.43.29.66,1,.85a2.4,2.4,0,0,1,1.2.6,1.17,1.17,0,0,1,.33.81,1.25,1.25,0,0,1-.42.94,1.59,1.59,0,0,1-1.12.39A1.63,1.63,0,0,1,288.68,50.1Z"/></svg>